%TF.GenerationSoftware,KiCad,Pcbnew,4.0.7*%
%TF.CreationDate,2017-11-15T16:48:18+08:00*%
%TF.ProjectId,MicroUSB,4D6963726F5553422E6B696361645F70,rev?*%
%TF.FileFunction,Other,ECO1*%
%FSLAX46Y46*%
G04 Gerber Fmt 4.6, Leading zero omitted, Abs format (unit mm)*
G04 Created by KiCad (PCBNEW 4.0.7) date 11/15/17 16:48:18*
%MOMM*%
%LPD*%
G01*
G04 APERTURE LIST*
%ADD10C,0.100000*%
%ADD11C,0.300000*%
G04 APERTURE END LIST*
D10*
D11*
X-2238571Y-3392858D02*
X-2238571Y-2535715D01*
X-2238571Y-2964287D02*
X-738571Y-2964287D01*
X-952857Y-2821430D01*
X-1095714Y-2678572D01*
X-1167143Y-2535715D01*
X-738571Y-4678572D02*
X-738571Y-4392858D01*
X-810000Y-4250001D01*
X-881429Y-4178572D01*
X-1095714Y-4035715D01*
X-1381429Y-3964286D01*
X-1952857Y-3964286D01*
X-2095714Y-4035715D01*
X-2167143Y-4107143D01*
X-2238571Y-4250001D01*
X-2238571Y-4535715D01*
X-2167143Y-4678572D01*
X-2095714Y-4750001D01*
X-1952857Y-4821429D01*
X-1595714Y-4821429D01*
X-1452857Y-4750001D01*
X-1381429Y-4678572D01*
X-1310000Y-4535715D01*
X-1310000Y-4250001D01*
X-1381429Y-4107143D01*
X-1452857Y-4035715D01*
X-1595714Y-3964286D01*
X-2095714Y-5464286D02*
X-2167143Y-5535714D01*
X-2238571Y-5464286D01*
X-2167143Y-5392857D01*
X-2095714Y-5464286D01*
X-2238571Y-5464286D01*
X-738571Y-6464286D02*
X-738571Y-6607143D01*
X-810000Y-6750000D01*
X-881429Y-6821429D01*
X-1024286Y-6892858D01*
X-1310000Y-6964286D01*
X-1667143Y-6964286D01*
X-1952857Y-6892858D01*
X-2095714Y-6821429D01*
X-2167143Y-6750000D01*
X-2238571Y-6607143D01*
X-2238571Y-6464286D01*
X-2167143Y-6321429D01*
X-2095714Y-6250000D01*
X-1952857Y-6178572D01*
X-1667143Y-6107143D01*
X-1310000Y-6107143D01*
X-1024286Y-6178572D01*
X-881429Y-6250000D01*
X-810000Y-6321429D01*
X-738571Y-6464286D01*
X-738571Y-7892857D02*
X-738571Y-8035714D01*
X-810000Y-8178571D01*
X-881429Y-8250000D01*
X-1024286Y-8321429D01*
X-1310000Y-8392857D01*
X-1667143Y-8392857D01*
X-1952857Y-8321429D01*
X-2095714Y-8250000D01*
X-2167143Y-8178571D01*
X-2238571Y-8035714D01*
X-2238571Y-7892857D01*
X-2167143Y-7750000D01*
X-2095714Y-7678571D01*
X-1952857Y-7607143D01*
X-1667143Y-7535714D01*
X-1310000Y-7535714D01*
X-1024286Y-7607143D01*
X-881429Y-7678571D01*
X-810000Y-7750000D01*
X-738571Y-7892857D01*
X-738571Y-9321428D02*
X-738571Y-9464285D01*
X-810000Y-9607142D01*
X-881429Y-9678571D01*
X-1024286Y-9750000D01*
X-1310000Y-9821428D01*
X-1667143Y-9821428D01*
X-1952857Y-9750000D01*
X-2095714Y-9678571D01*
X-2167143Y-9607142D01*
X-2238571Y-9464285D01*
X-2238571Y-9321428D01*
X-2167143Y-9178571D01*
X-2095714Y-9107142D01*
X-1952857Y-9035714D01*
X-1667143Y-8964285D01*
X-1310000Y-8964285D01*
X-1024286Y-9035714D01*
X-881429Y-9107142D01*
X-810000Y-9178571D01*
X-738571Y-9321428D01*
X-2238571Y-11607142D02*
X-1238571Y-11607142D01*
X-1381429Y-11607142D02*
X-1310000Y-11678570D01*
X-1238571Y-11821428D01*
X-1238571Y-12035713D01*
X-1310000Y-12178570D01*
X-1452857Y-12249999D01*
X-2238571Y-12249999D01*
X-1452857Y-12249999D02*
X-1310000Y-12321428D01*
X-1238571Y-12464285D01*
X-1238571Y-12678570D01*
X-1310000Y-12821428D01*
X-1452857Y-12892856D01*
X-2238571Y-12892856D01*
X-2238571Y-13607142D02*
X-1238571Y-13607142D01*
X-1381429Y-13607142D02*
X-1310000Y-13678570D01*
X-1238571Y-13821428D01*
X-1238571Y-14035713D01*
X-1310000Y-14178570D01*
X-1452857Y-14249999D01*
X-2238571Y-14249999D01*
X-1452857Y-14249999D02*
X-1310000Y-14321428D01*
X-1238571Y-14464285D01*
X-1238571Y-14678570D01*
X-1310000Y-14821428D01*
X-1452857Y-14892856D01*
X-2238571Y-14892856D01*
X-210000Y-750000D02*
X-210000Y-16750000D01*
X1140000Y-750000D02*
X-2910000Y-750000D01*
X1140000Y-16750000D02*
X-2910000Y-16750000D01*
X-210000Y-16750000D02*
X-796421Y-15623496D01*
X-210000Y-16750000D02*
X376421Y-15623496D01*
X-210000Y-750000D02*
X-796421Y-1876504D01*
X-210000Y-750000D02*
X376421Y-1876504D01*
X2657858Y1751429D02*
X1800715Y1751429D01*
X2229287Y1751429D02*
X2229287Y3251429D01*
X2086430Y3037143D01*
X1943572Y2894286D01*
X1800715Y2822857D01*
X3157858Y3251429D02*
X4086429Y3251429D01*
X3586429Y2680000D01*
X3800715Y2680000D01*
X3943572Y2608571D01*
X4015001Y2537143D01*
X4086429Y2394286D01*
X4086429Y2037143D01*
X4015001Y1894286D01*
X3943572Y1822857D01*
X3800715Y1751429D01*
X3372143Y1751429D01*
X3229286Y1822857D01*
X3157858Y1894286D01*
X4729286Y1894286D02*
X4800714Y1822857D01*
X4729286Y1751429D01*
X4657857Y1822857D01*
X4729286Y1894286D01*
X4729286Y1751429D01*
X5300715Y3251429D02*
X6300715Y3251429D01*
X5657858Y1751429D01*
X7586429Y3251429D02*
X6872143Y3251429D01*
X6800714Y2537143D01*
X6872143Y2608571D01*
X7015000Y2680000D01*
X7372143Y2680000D01*
X7515000Y2608571D01*
X7586429Y2537143D01*
X7657857Y2394286D01*
X7657857Y2037143D01*
X7586429Y1894286D01*
X7515000Y1822857D01*
X7372143Y1751429D01*
X7015000Y1751429D01*
X6872143Y1822857D01*
X6800714Y1894286D01*
X8586428Y3251429D02*
X8729285Y3251429D01*
X8872142Y3180000D01*
X8943571Y3108571D01*
X9015000Y2965714D01*
X9086428Y2680000D01*
X9086428Y2322857D01*
X9015000Y2037143D01*
X8943571Y1894286D01*
X8872142Y1822857D01*
X8729285Y1751429D01*
X8586428Y1751429D01*
X8443571Y1822857D01*
X8372142Y1894286D01*
X8300714Y2037143D01*
X8229285Y2322857D01*
X8229285Y2680000D01*
X8300714Y2965714D01*
X8372142Y3108571D01*
X8443571Y3180000D01*
X8586428Y3251429D01*
X10872142Y1751429D02*
X10872142Y2751429D01*
X10872142Y2608571D02*
X10943570Y2680000D01*
X11086428Y2751429D01*
X11300713Y2751429D01*
X11443570Y2680000D01*
X11514999Y2537143D01*
X11514999Y1751429D01*
X11514999Y2537143D02*
X11586428Y2680000D01*
X11729285Y2751429D01*
X11943570Y2751429D01*
X12086428Y2680000D01*
X12157856Y2537143D01*
X12157856Y1751429D01*
X12872142Y1751429D02*
X12872142Y2751429D01*
X12872142Y2608571D02*
X12943570Y2680000D01*
X13086428Y2751429D01*
X13300713Y2751429D01*
X13443570Y2680000D01*
X13514999Y2537143D01*
X13514999Y1751429D01*
X13514999Y2537143D02*
X13586428Y2680000D01*
X13729285Y2751429D01*
X13943570Y2751429D01*
X14086428Y2680000D01*
X14157856Y2537143D01*
X14157856Y1751429D01*
X1140000Y1080000D02*
X14890000Y1080000D01*
X1140000Y-680000D02*
X1140000Y3780000D01*
X14890000Y-680000D02*
X14890000Y3780000D01*
X14890000Y1080000D02*
X13763496Y493579D01*
X14890000Y1080000D02*
X13763496Y1666421D01*
X1140000Y1080000D02*
X2266504Y493579D01*
X1140000Y1080000D02*
X2266504Y1666421D01*
M02*
