%TF.GenerationSoftware,KiCad,Pcbnew,4.0.7*%
%TF.CreationDate,2017-11-15T16:48:17+08:00*%
%TF.ProjectId,MicroUSB,4D6963726F5553422E6B696361645F70,rev?*%
%TF.FileFunction,Copper,L2,Bot,Signal*%
%FSLAX46Y46*%
G04 Gerber Fmt 4.6, Leading zero omitted, Abs format (unit mm)*
G04 Created by KiCad (PCBNEW 4.0.7) date 11/15/17 16:48:17*
%MOMM*%
%LPD*%
G01*
G04 APERTURE LIST*
%ADD10C,0.100000*%
%ADD11C,0.325000*%
%ADD12C,1.450000*%
%ADD13O,1.200000X1.900000*%
%ADD14R,1.700000X1.700000*%
%ADD15O,1.700000X1.700000*%
%ADD16C,0.453000*%
%ADD17C,0.250000*%
%ADD18C,0.254000*%
G04 APERTURE END LIST*
D10*
D11*
X3028095Y-7969048D02*
X4328095Y-8402381D01*
X3028095Y-8835714D01*
X4204286Y-9269048D02*
X4266190Y-9330953D01*
X4328095Y-9269048D01*
X4266190Y-9207143D01*
X4204286Y-9269048D01*
X4328095Y-9269048D01*
X3028095Y-10135715D02*
X3028095Y-10259524D01*
X3090000Y-10383334D01*
X3151905Y-10445239D01*
X3275714Y-10507143D01*
X3523333Y-10569048D01*
X3832857Y-10569048D01*
X4080476Y-10507143D01*
X4204286Y-10445239D01*
X4266190Y-10383334D01*
X4328095Y-10259524D01*
X4328095Y-10135715D01*
X4266190Y-10011905D01*
X4204286Y-9950001D01*
X4080476Y-9888096D01*
X3832857Y-9826191D01*
X3523333Y-9826191D01*
X3275714Y-9888096D01*
X3151905Y-9950001D01*
X3090000Y-10011905D01*
X3028095Y-10135715D01*
X4328095Y-11807143D02*
X4328095Y-11064286D01*
X4328095Y-11435715D02*
X3028095Y-11435715D01*
X3213810Y-11311905D01*
X3337619Y-11188096D01*
X3399524Y-11064286D01*
D12*
X10450000Y-5460000D03*
X5450000Y-5460000D03*
D13*
X11450000Y-2760000D03*
X4450000Y-2760000D03*
D14*
X13100000Y-14950000D03*
D15*
X10560000Y-14950000D03*
X8020000Y-14950000D03*
X5480000Y-14950000D03*
X2940000Y-14950000D03*
D16*
X13530000Y-10900000D03*
X6870000Y-9170000D03*
X10130000Y-6870004D03*
X10350000Y-11020000D03*
D17*
X10130000Y-6870004D02*
X10130000Y-6880000D01*
X10130000Y-6880000D02*
X7840000Y-9170000D01*
X7840000Y-9170000D02*
X6870000Y-9170000D01*
X10350000Y-11020000D02*
X8500000Y-9170000D01*
X8500000Y-9170000D02*
X6870000Y-9170000D01*
X7960000Y-14820000D02*
X7820000Y-14680000D01*
D18*
G36*
X3357610Y-1820053D02*
X3215000Y-2283000D01*
X3215000Y-2633000D01*
X4323000Y-2633000D01*
X4323000Y-2613000D01*
X4577000Y-2613000D01*
X4577000Y-2633000D01*
X5685000Y-2633000D01*
X5685000Y-2283000D01*
X5542390Y-1820053D01*
X5244303Y-1460000D01*
X10655697Y-1460000D01*
X10357610Y-1820053D01*
X10215000Y-2283000D01*
X10215000Y-2633000D01*
X11323000Y-2633000D01*
X11323000Y-2613000D01*
X11577000Y-2613000D01*
X11577000Y-2633000D01*
X12685000Y-2633000D01*
X12685000Y-2283000D01*
X12542390Y-1820053D01*
X12244303Y-1460000D01*
X14180000Y-1460000D01*
X14180000Y-13499136D01*
X13950000Y-13452560D01*
X12250000Y-13452560D01*
X12014683Y-13496838D01*
X11798559Y-13635910D01*
X11653569Y-13848110D01*
X11639914Y-13915541D01*
X11610054Y-13870853D01*
X11128285Y-13548946D01*
X10560000Y-13435907D01*
X9991715Y-13548946D01*
X9509946Y-13870853D01*
X9290000Y-14200026D01*
X9070054Y-13870853D01*
X8588285Y-13548946D01*
X8020000Y-13435907D01*
X7451715Y-13548946D01*
X6969946Y-13870853D01*
X6750000Y-14200026D01*
X6530054Y-13870853D01*
X6048285Y-13548946D01*
X5480000Y-13435907D01*
X4911715Y-13548946D01*
X4429946Y-13870853D01*
X4202298Y-14211553D01*
X4135183Y-14068642D01*
X3706924Y-13678355D01*
X3296890Y-13508524D01*
X3067000Y-13629845D01*
X3067000Y-14823000D01*
X3087000Y-14823000D01*
X3087000Y-15077000D01*
X3067000Y-15077000D01*
X3067000Y-15097000D01*
X2813000Y-15097000D01*
X2813000Y-15077000D01*
X2793000Y-15077000D01*
X2793000Y-14823000D01*
X2813000Y-14823000D01*
X2813000Y-13629845D01*
X2583110Y-13508524D01*
X2173076Y-13678355D01*
X1850000Y-13972785D01*
X1850000Y-7210238D01*
X2032500Y-7210238D01*
X2032500Y-12689762D01*
X5577500Y-12689762D01*
X5577500Y-9340611D01*
X6008351Y-9340611D01*
X6139230Y-9657363D01*
X6381362Y-9899918D01*
X6697885Y-10031350D01*
X7040611Y-10031649D01*
X7286621Y-9930000D01*
X8185198Y-9930000D01*
X9518306Y-11263108D01*
X9619230Y-11507363D01*
X9861362Y-11749918D01*
X10177885Y-11881350D01*
X10520611Y-11881649D01*
X10837363Y-11750770D01*
X11079918Y-11508638D01*
X11211350Y-11192115D01*
X11211649Y-10849389D01*
X11080770Y-10532637D01*
X10838638Y-10290082D01*
X10592805Y-10188003D01*
X9244802Y-8840000D01*
X10390143Y-7694659D01*
X10617363Y-7600774D01*
X10859918Y-7358642D01*
X10991350Y-7042119D01*
X10991630Y-6721029D01*
X11158878Y-6651753D01*
X11223793Y-6413398D01*
X10450000Y-5639605D01*
X10435858Y-5653748D01*
X10256253Y-5474143D01*
X10270395Y-5460000D01*
X10629605Y-5460000D01*
X11403398Y-6233793D01*
X11641753Y-6168878D01*
X11822312Y-5658854D01*
X11793949Y-5118556D01*
X11641753Y-4751122D01*
X11403398Y-4686207D01*
X10629605Y-5460000D01*
X10270395Y-5460000D01*
X9496602Y-4686207D01*
X9258247Y-4751122D01*
X9077688Y-5261146D01*
X9106051Y-5801444D01*
X9258247Y-6168878D01*
X9496600Y-6233792D01*
X9381450Y-6348942D01*
X9406984Y-6374476D01*
X9400082Y-6381366D01*
X9290905Y-6644293D01*
X7525198Y-8410000D01*
X7286193Y-8410000D01*
X7042115Y-8308650D01*
X6699389Y-8308351D01*
X6382637Y-8439230D01*
X6140082Y-8681362D01*
X6008650Y-8997885D01*
X6008351Y-9340611D01*
X5577500Y-9340611D01*
X5577500Y-7210238D01*
X2032500Y-7210238D01*
X1850000Y-7210238D01*
X1850000Y-6413398D01*
X4676207Y-6413398D01*
X4741122Y-6651753D01*
X5251146Y-6832312D01*
X5791444Y-6803949D01*
X6158878Y-6651753D01*
X6223793Y-6413398D01*
X5450000Y-5639605D01*
X4676207Y-6413398D01*
X1850000Y-6413398D01*
X1850000Y-5261146D01*
X4077688Y-5261146D01*
X4106051Y-5801444D01*
X4258247Y-6168878D01*
X4496602Y-6233793D01*
X5270395Y-5460000D01*
X5629605Y-5460000D01*
X6403398Y-6233793D01*
X6641753Y-6168878D01*
X6822312Y-5658854D01*
X6793949Y-5118556D01*
X6641753Y-4751122D01*
X6403398Y-4686207D01*
X5629605Y-5460000D01*
X5270395Y-5460000D01*
X4496602Y-4686207D01*
X4258247Y-4751122D01*
X4077688Y-5261146D01*
X1850000Y-5261146D01*
X1850000Y-2887000D01*
X3215000Y-2887000D01*
X3215000Y-3237000D01*
X3357610Y-3699947D01*
X3666526Y-4073080D01*
X4094719Y-4299592D01*
X4132391Y-4303462D01*
X4323000Y-4178731D01*
X4323000Y-2887000D01*
X4577000Y-2887000D01*
X4577000Y-4178731D01*
X4736988Y-4283424D01*
X4676207Y-4506602D01*
X5450000Y-5280395D01*
X6223793Y-4506602D01*
X9676207Y-4506602D01*
X10450000Y-5280395D01*
X11223793Y-4506602D01*
X11163012Y-4283424D01*
X11323000Y-4178731D01*
X11323000Y-2887000D01*
X11577000Y-2887000D01*
X11577000Y-4178731D01*
X11767609Y-4303462D01*
X11805281Y-4299592D01*
X12233474Y-4073080D01*
X12542390Y-3699947D01*
X12685000Y-3237000D01*
X12685000Y-2887000D01*
X11577000Y-2887000D01*
X11323000Y-2887000D01*
X10215000Y-2887000D01*
X10215000Y-3237000D01*
X10357610Y-3699947D01*
X10666526Y-4073080D01*
X10785768Y-4136158D01*
X10648854Y-4087688D01*
X10108556Y-4116051D01*
X9741122Y-4268247D01*
X9676207Y-4506602D01*
X6223793Y-4506602D01*
X6158878Y-4268247D01*
X5648854Y-4087688D01*
X5157055Y-4113505D01*
X5233474Y-4073080D01*
X5542390Y-3699947D01*
X5685000Y-3237000D01*
X5685000Y-2887000D01*
X4577000Y-2887000D01*
X4323000Y-2887000D01*
X3215000Y-2887000D01*
X1850000Y-2887000D01*
X1850000Y-1460000D01*
X3655697Y-1460000D01*
X3357610Y-1820053D01*
X3357610Y-1820053D01*
G37*
X3357610Y-1820053D02*
X3215000Y-2283000D01*
X3215000Y-2633000D01*
X4323000Y-2633000D01*
X4323000Y-2613000D01*
X4577000Y-2613000D01*
X4577000Y-2633000D01*
X5685000Y-2633000D01*
X5685000Y-2283000D01*
X5542390Y-1820053D01*
X5244303Y-1460000D01*
X10655697Y-1460000D01*
X10357610Y-1820053D01*
X10215000Y-2283000D01*
X10215000Y-2633000D01*
X11323000Y-2633000D01*
X11323000Y-2613000D01*
X11577000Y-2613000D01*
X11577000Y-2633000D01*
X12685000Y-2633000D01*
X12685000Y-2283000D01*
X12542390Y-1820053D01*
X12244303Y-1460000D01*
X14180000Y-1460000D01*
X14180000Y-13499136D01*
X13950000Y-13452560D01*
X12250000Y-13452560D01*
X12014683Y-13496838D01*
X11798559Y-13635910D01*
X11653569Y-13848110D01*
X11639914Y-13915541D01*
X11610054Y-13870853D01*
X11128285Y-13548946D01*
X10560000Y-13435907D01*
X9991715Y-13548946D01*
X9509946Y-13870853D01*
X9290000Y-14200026D01*
X9070054Y-13870853D01*
X8588285Y-13548946D01*
X8020000Y-13435907D01*
X7451715Y-13548946D01*
X6969946Y-13870853D01*
X6750000Y-14200026D01*
X6530054Y-13870853D01*
X6048285Y-13548946D01*
X5480000Y-13435907D01*
X4911715Y-13548946D01*
X4429946Y-13870853D01*
X4202298Y-14211553D01*
X4135183Y-14068642D01*
X3706924Y-13678355D01*
X3296890Y-13508524D01*
X3067000Y-13629845D01*
X3067000Y-14823000D01*
X3087000Y-14823000D01*
X3087000Y-15077000D01*
X3067000Y-15077000D01*
X3067000Y-15097000D01*
X2813000Y-15097000D01*
X2813000Y-15077000D01*
X2793000Y-15077000D01*
X2793000Y-14823000D01*
X2813000Y-14823000D01*
X2813000Y-13629845D01*
X2583110Y-13508524D01*
X2173076Y-13678355D01*
X1850000Y-13972785D01*
X1850000Y-7210238D01*
X2032500Y-7210238D01*
X2032500Y-12689762D01*
X5577500Y-12689762D01*
X5577500Y-9340611D01*
X6008351Y-9340611D01*
X6139230Y-9657363D01*
X6381362Y-9899918D01*
X6697885Y-10031350D01*
X7040611Y-10031649D01*
X7286621Y-9930000D01*
X8185198Y-9930000D01*
X9518306Y-11263108D01*
X9619230Y-11507363D01*
X9861362Y-11749918D01*
X10177885Y-11881350D01*
X10520611Y-11881649D01*
X10837363Y-11750770D01*
X11079918Y-11508638D01*
X11211350Y-11192115D01*
X11211649Y-10849389D01*
X11080770Y-10532637D01*
X10838638Y-10290082D01*
X10592805Y-10188003D01*
X9244802Y-8840000D01*
X10390143Y-7694659D01*
X10617363Y-7600774D01*
X10859918Y-7358642D01*
X10991350Y-7042119D01*
X10991630Y-6721029D01*
X11158878Y-6651753D01*
X11223793Y-6413398D01*
X10450000Y-5639605D01*
X10435858Y-5653748D01*
X10256253Y-5474143D01*
X10270395Y-5460000D01*
X10629605Y-5460000D01*
X11403398Y-6233793D01*
X11641753Y-6168878D01*
X11822312Y-5658854D01*
X11793949Y-5118556D01*
X11641753Y-4751122D01*
X11403398Y-4686207D01*
X10629605Y-5460000D01*
X10270395Y-5460000D01*
X9496602Y-4686207D01*
X9258247Y-4751122D01*
X9077688Y-5261146D01*
X9106051Y-5801444D01*
X9258247Y-6168878D01*
X9496600Y-6233792D01*
X9381450Y-6348942D01*
X9406984Y-6374476D01*
X9400082Y-6381366D01*
X9290905Y-6644293D01*
X7525198Y-8410000D01*
X7286193Y-8410000D01*
X7042115Y-8308650D01*
X6699389Y-8308351D01*
X6382637Y-8439230D01*
X6140082Y-8681362D01*
X6008650Y-8997885D01*
X6008351Y-9340611D01*
X5577500Y-9340611D01*
X5577500Y-7210238D01*
X2032500Y-7210238D01*
X1850000Y-7210238D01*
X1850000Y-6413398D01*
X4676207Y-6413398D01*
X4741122Y-6651753D01*
X5251146Y-6832312D01*
X5791444Y-6803949D01*
X6158878Y-6651753D01*
X6223793Y-6413398D01*
X5450000Y-5639605D01*
X4676207Y-6413398D01*
X1850000Y-6413398D01*
X1850000Y-5261146D01*
X4077688Y-5261146D01*
X4106051Y-5801444D01*
X4258247Y-6168878D01*
X4496602Y-6233793D01*
X5270395Y-5460000D01*
X5629605Y-5460000D01*
X6403398Y-6233793D01*
X6641753Y-6168878D01*
X6822312Y-5658854D01*
X6793949Y-5118556D01*
X6641753Y-4751122D01*
X6403398Y-4686207D01*
X5629605Y-5460000D01*
X5270395Y-5460000D01*
X4496602Y-4686207D01*
X4258247Y-4751122D01*
X4077688Y-5261146D01*
X1850000Y-5261146D01*
X1850000Y-2887000D01*
X3215000Y-2887000D01*
X3215000Y-3237000D01*
X3357610Y-3699947D01*
X3666526Y-4073080D01*
X4094719Y-4299592D01*
X4132391Y-4303462D01*
X4323000Y-4178731D01*
X4323000Y-2887000D01*
X4577000Y-2887000D01*
X4577000Y-4178731D01*
X4736988Y-4283424D01*
X4676207Y-4506602D01*
X5450000Y-5280395D01*
X6223793Y-4506602D01*
X9676207Y-4506602D01*
X10450000Y-5280395D01*
X11223793Y-4506602D01*
X11163012Y-4283424D01*
X11323000Y-4178731D01*
X11323000Y-2887000D01*
X11577000Y-2887000D01*
X11577000Y-4178731D01*
X11767609Y-4303462D01*
X11805281Y-4299592D01*
X12233474Y-4073080D01*
X12542390Y-3699947D01*
X12685000Y-3237000D01*
X12685000Y-2887000D01*
X11577000Y-2887000D01*
X11323000Y-2887000D01*
X10215000Y-2887000D01*
X10215000Y-3237000D01*
X10357610Y-3699947D01*
X10666526Y-4073080D01*
X10785768Y-4136158D01*
X10648854Y-4087688D01*
X10108556Y-4116051D01*
X9741122Y-4268247D01*
X9676207Y-4506602D01*
X6223793Y-4506602D01*
X6158878Y-4268247D01*
X5648854Y-4087688D01*
X5157055Y-4113505D01*
X5233474Y-4073080D01*
X5542390Y-3699947D01*
X5685000Y-3237000D01*
X5685000Y-2887000D01*
X4577000Y-2887000D01*
X4323000Y-2887000D01*
X3215000Y-2887000D01*
X1850000Y-2887000D01*
X1850000Y-1460000D01*
X3655697Y-1460000D01*
X3357610Y-1820053D01*
M02*
