%TF.GenerationSoftware,KiCad,Pcbnew,4.0.7*%
%TF.CreationDate,2017-11-15T16:48:18+08:00*%
%TF.ProjectId,MicroUSB,4D6963726F5553422E6B696361645F70,rev?*%
%TF.FileFunction,Legend,Bot*%
%FSLAX46Y46*%
G04 Gerber Fmt 4.6, Leading zero omitted, Abs format (unit mm)*
G04 Created by KiCad (PCBNEW 4.0.7) date 11/15/17 16:48:18*
%MOMM*%
%LPD*%
G01*
G04 APERTURE LIST*
%ADD10C,0.100000*%
%ADD11C,0.200000*%
%ADD12C,0.120000*%
G04 APERTURE END LIST*
D10*
D11*
X12764763Y-13242381D02*
X12764763Y-12242381D01*
X12498096Y-12956667D01*
X12231429Y-12242381D01*
X12231429Y-13242381D01*
X11850477Y-13242381D02*
X11850477Y-12575714D01*
X11850477Y-12242381D02*
X11888572Y-12290000D01*
X11850477Y-12337619D01*
X11812382Y-12290000D01*
X11850477Y-12242381D01*
X11850477Y-12337619D01*
X11126668Y-13194762D02*
X11202858Y-13242381D01*
X11355239Y-13242381D01*
X11431430Y-13194762D01*
X11469525Y-13147143D01*
X11507620Y-13051905D01*
X11507620Y-12766190D01*
X11469525Y-12670952D01*
X11431430Y-12623333D01*
X11355239Y-12575714D01*
X11202858Y-12575714D01*
X11126668Y-12623333D01*
X10783811Y-13242381D02*
X10783811Y-12575714D01*
X10783811Y-12766190D02*
X10745716Y-12670952D01*
X10707620Y-12623333D01*
X10631430Y-12575714D01*
X10555239Y-12575714D01*
X10174287Y-13242381D02*
X10250478Y-13194762D01*
X10288573Y-13147143D01*
X10326668Y-13051905D01*
X10326668Y-12766190D01*
X10288573Y-12670952D01*
X10250478Y-12623333D01*
X10174287Y-12575714D01*
X10060001Y-12575714D01*
X9983811Y-12623333D01*
X9945716Y-12670952D01*
X9907620Y-12766190D01*
X9907620Y-13051905D01*
X9945716Y-13147143D01*
X9983811Y-13194762D01*
X10060001Y-13242381D01*
X10174287Y-13242381D01*
X9755239Y-13337619D02*
X9145715Y-13337619D01*
X8955239Y-12242381D02*
X8955239Y-13051905D01*
X8917144Y-13147143D01*
X8879048Y-13194762D01*
X8802858Y-13242381D01*
X8650477Y-13242381D01*
X8574286Y-13194762D01*
X8536191Y-13147143D01*
X8498096Y-13051905D01*
X8498096Y-12242381D01*
X8155239Y-13194762D02*
X8040953Y-13242381D01*
X7850477Y-13242381D01*
X7774287Y-13194762D01*
X7736191Y-13147143D01*
X7698096Y-13051905D01*
X7698096Y-12956667D01*
X7736191Y-12861429D01*
X7774287Y-12813810D01*
X7850477Y-12766190D01*
X8002858Y-12718571D01*
X8079049Y-12670952D01*
X8117144Y-12623333D01*
X8155239Y-12528095D01*
X8155239Y-12432857D01*
X8117144Y-12337619D01*
X8079049Y-12290000D01*
X8002858Y-12242381D01*
X7812382Y-12242381D01*
X7698096Y-12290000D01*
X7088572Y-12718571D02*
X6974286Y-12766190D01*
X6936191Y-12813810D01*
X6898096Y-12909048D01*
X6898096Y-13051905D01*
X6936191Y-13147143D01*
X6974286Y-13194762D01*
X7050477Y-13242381D01*
X7355239Y-13242381D01*
X7355239Y-12242381D01*
X7088572Y-12242381D01*
X7012382Y-12290000D01*
X6974286Y-12337619D01*
X6936191Y-12432857D01*
X6936191Y-12528095D01*
X6974286Y-12623333D01*
X7012382Y-12670952D01*
X7088572Y-12718571D01*
X7355239Y-12718571D01*
X6745715Y-13337619D02*
X6136191Y-13337619D01*
X5488572Y-13147143D02*
X5526667Y-13194762D01*
X5640953Y-13242381D01*
X5717143Y-13242381D01*
X5831429Y-13194762D01*
X5907620Y-13099524D01*
X5945715Y-13004286D01*
X5983810Y-12813810D01*
X5983810Y-12670952D01*
X5945715Y-12480476D01*
X5907620Y-12385238D01*
X5831429Y-12290000D01*
X5717143Y-12242381D01*
X5640953Y-12242381D01*
X5526667Y-12290000D01*
X5488572Y-12337619D01*
X5031429Y-13242381D02*
X5107620Y-13194762D01*
X5145715Y-13147143D01*
X5183810Y-13051905D01*
X5183810Y-12766190D01*
X5145715Y-12670952D01*
X5107620Y-12623333D01*
X5031429Y-12575714D01*
X4917143Y-12575714D01*
X4840953Y-12623333D01*
X4802858Y-12670952D01*
X4764762Y-12766190D01*
X4764762Y-13051905D01*
X4802858Y-13147143D01*
X4840953Y-13194762D01*
X4917143Y-13242381D01*
X5031429Y-13242381D01*
X4421905Y-12575714D02*
X4421905Y-13242381D01*
X4421905Y-12670952D02*
X4383810Y-12623333D01*
X4307619Y-12575714D01*
X4193333Y-12575714D01*
X4117143Y-12623333D01*
X4079048Y-12718571D01*
X4079048Y-13242381D01*
X3698095Y-12575714D02*
X3698095Y-13242381D01*
X3698095Y-12670952D02*
X3660000Y-12623333D01*
X3583809Y-12575714D01*
X3469523Y-12575714D01*
X3393333Y-12623333D01*
X3355238Y-12718571D01*
X3355238Y-13242381D01*
X7180000Y-11340000D02*
X6520000Y-11780000D01*
X6960000Y-11030000D02*
X6200000Y-11220000D01*
X6940000Y-10650000D02*
X6240000Y-10550000D01*
X8740000Y-11360000D02*
X9260000Y-11800000D01*
X8970000Y-11130000D02*
X9650000Y-11240000D01*
X8980000Y-10800000D02*
X9720000Y-10590000D01*
X7760000Y-11290000D02*
X8290000Y-10900000D01*
X7770000Y-10900000D02*
X8320000Y-11270000D01*
X8476301Y-10210000D02*
G75*
G03X8476301Y-10210000I-106301J0D01*
G01*
X7707703Y-10220000D02*
G75*
G03X7707703Y-10220000I-107703J0D01*
G01*
X6580000Y-9300000D02*
X6750000Y-10080000D01*
X7220000Y-9670000D02*
X6610000Y-9280000D01*
X9420000Y-9220000D02*
X9050000Y-10040000D01*
X8620000Y-9600000D02*
X9420000Y-9220000D01*
X9210000Y-10660000D02*
G75*
G03X9210000Y-10660000I-1250000J0D01*
G01*
D12*
X1610000Y-16280000D02*
X1610000Y-13620000D01*
X11830000Y-16280000D02*
X1610000Y-16280000D01*
X11830000Y-13620000D02*
X1610000Y-13620000D01*
X11830000Y-16280000D02*
X11830000Y-13620000D01*
X13100000Y-16280000D02*
X14430000Y-16280000D01*
X14430000Y-16280000D02*
X14430000Y-14950000D01*
M02*
