%TF.GenerationSoftware,KiCad,Pcbnew,4.0.7*%
%TF.CreationDate,2017-12-10T14:51:51+08:00*%
%TF.ProjectId,MicroUSB,4D6963726F5553422E6B696361645F70,rev?*%
%TF.FileFunction,Legend,Top*%
%FSLAX46Y46*%
G04 Gerber Fmt 4.6, Leading zero omitted, Abs format (unit mm)*
G04 Created by KiCad (PCBNEW 4.0.7) date 12/10/17 14:51:51*
%MOMM*%
%LPD*%
G01*
G04 APERTURE LIST*
%ADD10C,0.100000*%
%ADD11C,0.200000*%
%ADD12C,0.120000*%
G04 APERTURE END LIST*
D10*
D11*
X3072619Y-12915000D02*
X2991667Y-12874524D01*
X2870238Y-12874524D01*
X2748810Y-12915000D01*
X2667857Y-12995952D01*
X2627381Y-13076905D01*
X2586905Y-13238810D01*
X2586905Y-13360238D01*
X2627381Y-13522143D01*
X2667857Y-13603095D01*
X2748810Y-13684048D01*
X2870238Y-13724524D01*
X2951190Y-13724524D01*
X3072619Y-13684048D01*
X3113095Y-13643571D01*
X3113095Y-13360238D01*
X2951190Y-13360238D01*
X3891667Y-13279286D02*
X4175000Y-13279286D01*
X4296429Y-13724524D02*
X3891667Y-13724524D01*
X3891667Y-12874524D01*
X4296429Y-12874524D01*
X4660715Y-13724524D02*
X4660715Y-12874524D01*
X5146429Y-13724524D01*
X5146429Y-12874524D01*
X5551191Y-12874524D02*
X5551191Y-13562619D01*
X5591667Y-13643571D01*
X5632143Y-13684048D01*
X5713096Y-13724524D01*
X5875000Y-13724524D01*
X5955953Y-13684048D01*
X5996429Y-13643571D01*
X6036905Y-13562619D01*
X6036905Y-12874524D01*
X6441667Y-13724524D02*
X6441667Y-12874524D01*
X6725000Y-13481667D01*
X7008334Y-12874524D01*
X7008334Y-13724524D01*
X7631191Y-13704524D02*
X7631191Y-12854524D01*
X7833572Y-12854524D01*
X7955000Y-12895000D01*
X8035953Y-12975952D01*
X8076429Y-13056905D01*
X8116905Y-13218810D01*
X8116905Y-13340238D01*
X8076429Y-13502143D01*
X8035953Y-13583095D01*
X7955000Y-13664048D01*
X7833572Y-13704524D01*
X7631191Y-13704524D01*
X8481191Y-13380714D02*
X9128810Y-13380714D01*
X8805000Y-13704524D02*
X8805000Y-13056905D01*
X9831191Y-13744524D02*
X9831191Y-12894524D01*
X10033572Y-12894524D01*
X10155000Y-12935000D01*
X10235953Y-13015952D01*
X10276429Y-13096905D01*
X10316905Y-13258810D01*
X10316905Y-13380238D01*
X10276429Y-13542143D01*
X10235953Y-13623095D01*
X10155000Y-13704048D01*
X10033572Y-13744524D01*
X9831191Y-13744524D01*
X10681191Y-13420714D02*
X11328810Y-13420714D01*
X12978096Y-12854524D02*
X12573334Y-12854524D01*
X12532858Y-13259286D01*
X12573334Y-13218810D01*
X12654286Y-13178333D01*
X12856667Y-13178333D01*
X12937620Y-13218810D01*
X12978096Y-13259286D01*
X13018572Y-13340238D01*
X13018572Y-13542619D01*
X12978096Y-13623571D01*
X12937620Y-13664048D01*
X12856667Y-13704524D01*
X12654286Y-13704524D01*
X12573334Y-13664048D01*
X12532858Y-13623571D01*
X13261429Y-12854524D02*
X13544763Y-13704524D01*
X13828096Y-12854524D01*
D12*
X9860000Y-10130000D02*
X8930000Y-10130000D01*
X6700000Y-10130000D02*
X7630000Y-10130000D01*
X6700000Y-10130000D02*
X6700000Y-12290000D01*
X9860000Y-10130000D02*
X9860000Y-11590000D01*
X10870000Y-10020000D02*
X10870000Y-11820000D01*
X14090000Y-11820000D02*
X14090000Y-9370000D01*
X12240000Y-7290000D02*
X13240000Y-7290000D01*
X13240000Y-8650000D02*
X12240000Y-8650000D01*
X10040000Y-8650000D02*
X9040000Y-8650000D01*
X9040000Y-7290000D02*
X10040000Y-7290000D01*
X13900000Y-4980000D02*
X13900000Y-5980000D01*
X12540000Y-5980000D02*
X12540000Y-4980000D01*
X6950000Y-8650000D02*
X5950000Y-8650000D01*
X5950000Y-7290000D02*
X6950000Y-7290000D01*
X2740000Y-7290000D02*
X3740000Y-7290000D01*
X3740000Y-8650000D02*
X2740000Y-8650000D01*
X3700000Y-10780000D02*
X3700000Y-11780000D01*
X2340000Y-11780000D02*
X2340000Y-10780000D01*
X5890000Y-10780000D02*
X5890000Y-11780000D01*
X4530000Y-11780000D02*
X4530000Y-10780000D01*
X11840000Y-5700000D02*
X11390000Y-5700000D01*
X11840000Y-3850000D02*
X11840000Y-5700000D01*
X4040000Y-1300000D02*
X4040000Y-1550000D01*
X11840000Y-1300000D02*
X11840000Y-1550000D01*
X4040000Y-3850000D02*
X4040000Y-5700000D01*
X4040000Y-5700000D02*
X4490000Y-5700000D01*
X9640000Y-6250000D02*
X9190000Y-6250000D01*
X9640000Y-6250000D02*
X9640000Y-5800000D01*
D11*
X11618333Y-7034524D02*
X11335000Y-6629762D01*
X11132619Y-7034524D02*
X11132619Y-6184524D01*
X11456428Y-6184524D01*
X11537381Y-6225000D01*
X11577857Y-6265476D01*
X11618333Y-6346429D01*
X11618333Y-6467857D01*
X11577857Y-6548810D01*
X11537381Y-6589286D01*
X11456428Y-6629762D01*
X11132619Y-6629762D01*
X11942143Y-6265476D02*
X11982619Y-6225000D01*
X12063571Y-6184524D01*
X12265952Y-6184524D01*
X12346905Y-6225000D01*
X12387381Y-6265476D01*
X12427857Y-6346429D01*
X12427857Y-6427381D01*
X12387381Y-6548810D01*
X11901667Y-7034524D01*
X12427857Y-7034524D01*
X9998333Y-9764524D02*
X9715000Y-9359762D01*
X9512619Y-9764524D02*
X9512619Y-8914524D01*
X9836428Y-8914524D01*
X9917381Y-8955000D01*
X9957857Y-8995476D01*
X9998333Y-9076429D01*
X9998333Y-9197857D01*
X9957857Y-9278810D01*
X9917381Y-9319286D01*
X9836428Y-9359762D01*
X9512619Y-9359762D01*
X10807857Y-9764524D02*
X10322143Y-9764524D01*
X10565000Y-9764524D02*
X10565000Y-8914524D01*
X10484048Y-9035952D01*
X10403095Y-9116905D01*
X10322143Y-9157381D01*
X13128333Y-3964524D02*
X12845000Y-3559762D01*
X12642619Y-3964524D02*
X12642619Y-3114524D01*
X12966428Y-3114524D01*
X13047381Y-3155000D01*
X13087857Y-3195476D01*
X13128333Y-3276429D01*
X13128333Y-3397857D01*
X13087857Y-3478810D01*
X13047381Y-3519286D01*
X12966428Y-3559762D01*
X12642619Y-3559762D01*
X13411667Y-3114524D02*
X13937857Y-3114524D01*
X13654524Y-3438333D01*
X13775952Y-3438333D01*
X13856905Y-3478810D01*
X13897381Y-3519286D01*
X13937857Y-3600238D01*
X13937857Y-3802619D01*
X13897381Y-3883571D01*
X13856905Y-3924048D01*
X13775952Y-3964524D01*
X13533095Y-3964524D01*
X13452143Y-3924048D01*
X13411667Y-3883571D01*
X6248333Y-7194524D02*
X5965000Y-6789762D01*
X5762619Y-7194524D02*
X5762619Y-6344524D01*
X6086428Y-6344524D01*
X6167381Y-6385000D01*
X6207857Y-6425476D01*
X6248333Y-6506429D01*
X6248333Y-6627857D01*
X6207857Y-6708810D01*
X6167381Y-6749286D01*
X6086428Y-6789762D01*
X5762619Y-6789762D01*
X6976905Y-6627857D02*
X6976905Y-7194524D01*
X6774524Y-6304048D02*
X6572143Y-6911190D01*
X7098333Y-6911190D01*
X2478333Y-7024524D02*
X2195000Y-6619762D01*
X1992619Y-7024524D02*
X1992619Y-6174524D01*
X2316428Y-6174524D01*
X2397381Y-6215000D01*
X2437857Y-6255476D01*
X2478333Y-6336429D01*
X2478333Y-6457857D01*
X2437857Y-6538810D01*
X2397381Y-6579286D01*
X2316428Y-6619762D01*
X1992619Y-6619762D01*
X3247381Y-6174524D02*
X2842619Y-6174524D01*
X2802143Y-6579286D01*
X2842619Y-6538810D01*
X2923571Y-6498333D01*
X3125952Y-6498333D01*
X3206905Y-6538810D01*
X3247381Y-6579286D01*
X3287857Y-6660238D01*
X3287857Y-6862619D01*
X3247381Y-6943571D01*
X3206905Y-6984048D01*
X3125952Y-7024524D01*
X2923571Y-7024524D01*
X2842619Y-6984048D01*
X2802143Y-6943571D01*
X2888333Y-9834524D02*
X2605000Y-9429762D01*
X2402619Y-9834524D02*
X2402619Y-8984524D01*
X2726428Y-8984524D01*
X2807381Y-9025000D01*
X2847857Y-9065476D01*
X2888333Y-9146429D01*
X2888333Y-9267857D01*
X2847857Y-9348810D01*
X2807381Y-9389286D01*
X2726428Y-9429762D01*
X2402619Y-9429762D01*
X3616905Y-8984524D02*
X3455000Y-8984524D01*
X3374048Y-9025000D01*
X3333571Y-9065476D01*
X3252619Y-9186905D01*
X3212143Y-9348810D01*
X3212143Y-9672619D01*
X3252619Y-9753571D01*
X3293095Y-9794048D01*
X3374048Y-9834524D01*
X3535952Y-9834524D01*
X3616905Y-9794048D01*
X3657381Y-9753571D01*
X3697857Y-9672619D01*
X3697857Y-9470238D01*
X3657381Y-9389286D01*
X3616905Y-9348810D01*
X3535952Y-9308333D01*
X3374048Y-9308333D01*
X3293095Y-9348810D01*
X3252619Y-9389286D01*
X3212143Y-9470238D01*
X5188333Y-9791905D02*
X4905000Y-9410952D01*
X4702619Y-9791905D02*
X4702619Y-8991905D01*
X5026428Y-8991905D01*
X5107381Y-9030000D01*
X5147857Y-9068095D01*
X5188333Y-9144286D01*
X5188333Y-9258571D01*
X5147857Y-9334762D01*
X5107381Y-9372857D01*
X5026428Y-9410952D01*
X4702619Y-9410952D01*
X5471667Y-8991905D02*
X6038333Y-8991905D01*
X5674048Y-9791905D01*
M02*
