%TF.GenerationSoftware,KiCad,Pcbnew,4.0.7*%
%TF.CreationDate,2017-12-10T14:51:51+08:00*%
%TF.ProjectId,MicroUSB,4D6963726F5553422E6B696361645F70,rev?*%
%TF.FileFunction,Copper,L1,Top,Signal*%
%FSLAX46Y46*%
G04 Gerber Fmt 4.6, Leading zero omitted, Abs format (unit mm)*
G04 Created by KiCad (PCBNEW 4.0.7) date 12/10/17 14:51:51*
%MOMM*%
%LPD*%
G01*
G04 APERTURE LIST*
%ADD10C,0.100000*%
%ADD11R,0.800000X0.900000*%
%ADD12R,1.700000X1.700000*%
%ADD13O,1.700000X1.700000*%
%ADD14R,0.650000X1.060000*%
%ADD15R,0.500000X0.900000*%
%ADD16R,0.900000X0.500000*%
%ADD17R,1.500000X1.900000*%
%ADD18C,1.450000*%
%ADD19R,0.400000X1.350000*%
%ADD20O,1.200000X1.900000*%
%ADD21R,1.200000X1.900000*%
%ADD22C,0.453000*%
%ADD23C,0.250000*%
%ADD24C,0.254000*%
G04 APERTURE END LIST*
D10*
D11*
X7330000Y-11890000D03*
X9230000Y-11890000D03*
X8280000Y-9890000D03*
D12*
X13100000Y-14950000D03*
D13*
X10560000Y-14950000D03*
X8020000Y-14950000D03*
X5480000Y-14950000D03*
X2940000Y-14950000D03*
D14*
X13430000Y-9820000D03*
X12480000Y-9820000D03*
X11530000Y-9820000D03*
X11530000Y-12020000D03*
X13430000Y-12020000D03*
X12480000Y-12020000D03*
D15*
X13490000Y-7970000D03*
X11990000Y-7970000D03*
X8790000Y-7970000D03*
X10290000Y-7970000D03*
D16*
X13220000Y-6230000D03*
X13220000Y-4730000D03*
D15*
X5700000Y-7970000D03*
X7200000Y-7970000D03*
X3990000Y-7970000D03*
X2490000Y-7970000D03*
D16*
X3020000Y-12030000D03*
X3020000Y-10530000D03*
X5210000Y-12030000D03*
X5210000Y-10530000D03*
D17*
X6940000Y-2700000D03*
D18*
X10440000Y-5400000D03*
D19*
X8590000Y-5400000D03*
X9240000Y-5400000D03*
X6640000Y-5400000D03*
X7290000Y-5400000D03*
X7940000Y-5400000D03*
D18*
X5440000Y-5400000D03*
D17*
X8940000Y-2700000D03*
D20*
X11440000Y-2700000D03*
X4440000Y-2700000D03*
D21*
X5040000Y-2700000D03*
X10840000Y-2700000D03*
D22*
X13160000Y-5440000D03*
X13530000Y-10900000D03*
X10130000Y-6870004D03*
X10350000Y-11020000D03*
X6870000Y-9170000D03*
D23*
X5440000Y-5400000D02*
X5670000Y-5630000D01*
X5670000Y-5630000D02*
X5670000Y-7940000D01*
X5670000Y-7940000D02*
X5700000Y-7970000D01*
X5050000Y-2830000D02*
X4450000Y-2830000D01*
X10850000Y-2830000D02*
X11450000Y-2830000D01*
X12250000Y-2864592D02*
X11735000Y-2864592D01*
X13110000Y-2864592D02*
X12250000Y-2864592D01*
X12250000Y-2864592D02*
X11484592Y-2864592D01*
X11484592Y-2864592D02*
X11450000Y-2830000D01*
X10450000Y-5530000D02*
X10530000Y-5450000D01*
X10530000Y-5450000D02*
X13150000Y-5450000D01*
X13150000Y-5450000D02*
X13160000Y-5440000D01*
X5450000Y-5530000D02*
X6650000Y-5530000D01*
X5450000Y-5530000D02*
X5450000Y-5420000D01*
X5450000Y-5420000D02*
X4445000Y-4415000D01*
X4445000Y-4415000D02*
X4450000Y-4410000D01*
X4450000Y-4410000D02*
X4450000Y-2830000D01*
X10860000Y-2840000D02*
X11460000Y-2840000D01*
X8960000Y-2840000D02*
X10860000Y-2840000D01*
X6960000Y-2840000D02*
X8960000Y-2840000D01*
X5060000Y-2840000D02*
X6960000Y-2840000D01*
X4460000Y-2840000D02*
X5060000Y-2840000D01*
X13160000Y-5440000D02*
X13870000Y-5440000D01*
X13870000Y-5440000D02*
X14110000Y-5200000D01*
X14110000Y-5200000D02*
X14110000Y-3864592D01*
X14110000Y-3864592D02*
X13110000Y-2864592D01*
X4009990Y-3026400D02*
X4009990Y-2864592D01*
X5700000Y-5780000D02*
X5275408Y-5780000D01*
X13105736Y-10900000D02*
X13530000Y-10900000D01*
X12360000Y-10154264D02*
X13105736Y-10900000D01*
X12360000Y-9960000D02*
X12360000Y-10154264D01*
X2940000Y-14950000D02*
X2940000Y-12110000D01*
X2940000Y-12110000D02*
X3020000Y-12030000D01*
X8610000Y-5540000D02*
X8610000Y-4615000D01*
X8610000Y-4615000D02*
X8995000Y-4230000D01*
X8995000Y-4230000D02*
X12520000Y-4230000D01*
X12520000Y-4230000D02*
X13020000Y-4730000D01*
X13020000Y-4730000D02*
X13220000Y-4730000D01*
X9260000Y-6015000D02*
X10115004Y-6870004D01*
X9260000Y-5540000D02*
X9260000Y-6015000D01*
X10115004Y-6870004D02*
X10130000Y-6870004D01*
X12360000Y-11380000D02*
X12000000Y-11020000D01*
X10774264Y-11020000D02*
X10350000Y-11020000D01*
X12000000Y-11020000D02*
X10774264Y-11020000D01*
X12360000Y-12160000D02*
X12360000Y-11380000D01*
X12360000Y-12160000D02*
X12420000Y-12220000D01*
X12420000Y-12220000D02*
X12420000Y-14270000D01*
X12420000Y-14270000D02*
X13100000Y-14950000D01*
X12600000Y-14450000D02*
X13100000Y-14950000D01*
X12960000Y-14810000D02*
X13100000Y-14950000D01*
X7270000Y-7880000D02*
X7270000Y-5580000D01*
X7270000Y-5580000D02*
X7310000Y-5540000D01*
X7200000Y-7950000D02*
X7270000Y-7880000D01*
X8515000Y-7020000D02*
X9340000Y-7020000D01*
X7960000Y-6465000D02*
X8515000Y-7020000D01*
X9340000Y-7020000D02*
X10290000Y-7970000D01*
X7960000Y-5540000D02*
X7960000Y-6465000D01*
X11990000Y-7950000D02*
X10310000Y-7950000D01*
X10310000Y-7950000D02*
X10290000Y-7970000D01*
X11950000Y-7690000D02*
X11960000Y-7700000D01*
X10560000Y-14950000D02*
X10560000Y-13435000D01*
X10560000Y-13435000D02*
X11650000Y-12345000D01*
X11650000Y-12345000D02*
X11650000Y-12140000D01*
X8020000Y-14950000D02*
X9280000Y-16210000D01*
X9280000Y-16210000D02*
X14150000Y-16210000D01*
X14150000Y-16210000D02*
X14340000Y-16020000D01*
X14340000Y-16020000D02*
X14340000Y-13320000D01*
X14340000Y-13320000D02*
X13560000Y-12540000D01*
X5210000Y-12050000D02*
X5210000Y-14680000D01*
X5210000Y-14680000D02*
X5480000Y-14950000D01*
X5480000Y-14950000D02*
X5830000Y-14600000D01*
X5050000Y-14520000D02*
X5480000Y-14950000D01*
X5480000Y-14950000D02*
X5382998Y-14950000D01*
X3020000Y-10530000D02*
X2620000Y-10130000D01*
X2620000Y-10130000D02*
X2620000Y-7960000D01*
X2620000Y-7960000D02*
X2590000Y-7930000D01*
X3020000Y-10530000D02*
X5190000Y-10530000D01*
X5190000Y-10530000D02*
X5210000Y-10550000D01*
X7330000Y-11890000D02*
X6820000Y-11890000D01*
X6820000Y-11890000D02*
X5450000Y-10520000D01*
X5450000Y-10520000D02*
X5390000Y-10520000D01*
X9230000Y-11890000D02*
X9230000Y-8600000D01*
X9230000Y-8600000D02*
X8790000Y-8160000D01*
X8790000Y-8160000D02*
X8790000Y-8100000D01*
X8790000Y-8100000D02*
X8790000Y-7970000D01*
X13490000Y-7950000D02*
X13430000Y-8010000D01*
X13430000Y-8010000D02*
X13430000Y-9840000D01*
X13430000Y-9840000D02*
X13310000Y-9960000D01*
X13220000Y-6230000D02*
X13220000Y-6730000D01*
X13220000Y-6730000D02*
X12630000Y-7320000D01*
X12630000Y-7320000D02*
X12630000Y-8560000D01*
X12630000Y-8560000D02*
X12280000Y-8910000D01*
X11810000Y-8910000D02*
X11530000Y-9190000D01*
X12280000Y-8910000D02*
X11810000Y-8910000D01*
X11530000Y-9190000D02*
X11530000Y-9820000D01*
D24*
G36*
X12501838Y-12785317D02*
X12607000Y-12948743D01*
X12607000Y-13026250D01*
X12765750Y-13185000D01*
X12931310Y-13185000D01*
X12968171Y-13169732D01*
X13105000Y-13197440D01*
X13142638Y-13197440D01*
X13410198Y-13465000D01*
X13385750Y-13465000D01*
X13227000Y-13623750D01*
X13227000Y-14823000D01*
X13247000Y-14823000D01*
X13247000Y-15077000D01*
X13227000Y-15077000D01*
X13227000Y-15097000D01*
X12973000Y-15097000D01*
X12973000Y-15077000D01*
X12953000Y-15077000D01*
X12953000Y-14823000D01*
X12973000Y-14823000D01*
X12973000Y-13623750D01*
X12814250Y-13465000D01*
X12123690Y-13465000D01*
X11890301Y-13561673D01*
X11711673Y-13740302D01*
X11639403Y-13914777D01*
X11610054Y-13870853D01*
X11363614Y-13706188D01*
X11876386Y-13193416D01*
X11995086Y-13171081D01*
X12028690Y-13185000D01*
X12194250Y-13185000D01*
X12353000Y-13026250D01*
X12353000Y-12945949D01*
X12451431Y-12801890D01*
X12479176Y-12664880D01*
X12501838Y-12785317D01*
X12501838Y-12785317D01*
G37*
X12501838Y-12785317D02*
X12607000Y-12948743D01*
X12607000Y-13026250D01*
X12765750Y-13185000D01*
X12931310Y-13185000D01*
X12968171Y-13169732D01*
X13105000Y-13197440D01*
X13142638Y-13197440D01*
X13410198Y-13465000D01*
X13385750Y-13465000D01*
X13227000Y-13623750D01*
X13227000Y-14823000D01*
X13247000Y-14823000D01*
X13247000Y-15077000D01*
X13227000Y-15077000D01*
X13227000Y-15097000D01*
X12973000Y-15097000D01*
X12973000Y-15077000D01*
X12953000Y-15077000D01*
X12953000Y-14823000D01*
X12973000Y-14823000D01*
X12973000Y-13623750D01*
X12814250Y-13465000D01*
X12123690Y-13465000D01*
X11890301Y-13561673D01*
X11711673Y-13740302D01*
X11639403Y-13914777D01*
X11610054Y-13870853D01*
X11363614Y-13706188D01*
X11876386Y-13193416D01*
X11995086Y-13171081D01*
X12028690Y-13185000D01*
X12194250Y-13185000D01*
X12353000Y-13026250D01*
X12353000Y-12945949D01*
X12451431Y-12801890D01*
X12479176Y-12664880D01*
X12501838Y-12785317D01*
G36*
X10557560Y-9290000D02*
X10557560Y-10350000D01*
X10601838Y-10585317D01*
X10740910Y-10801441D01*
X10916232Y-10921233D01*
X10753559Y-11025910D01*
X10608569Y-11238110D01*
X10557560Y-11490000D01*
X10557560Y-12362638D01*
X10022599Y-12897599D01*
X9857852Y-13144161D01*
X9800000Y-13435000D01*
X9800000Y-13677046D01*
X9509946Y-13870853D01*
X9290000Y-14200026D01*
X9070054Y-13870853D01*
X8588285Y-13548946D01*
X8020000Y-13435907D01*
X7451715Y-13548946D01*
X6969946Y-13870853D01*
X6750000Y-14200026D01*
X6530054Y-13870853D01*
X6048285Y-13548946D01*
X5970000Y-13533374D01*
X5970000Y-12835105D01*
X6111441Y-12744090D01*
X6256431Y-12531890D01*
X6278434Y-12423236D01*
X6282599Y-12427401D01*
X6301365Y-12439940D01*
X6326838Y-12575317D01*
X6465910Y-12791441D01*
X6678110Y-12936431D01*
X6930000Y-12987440D01*
X7730000Y-12987440D01*
X7965317Y-12943162D01*
X8181441Y-12804090D01*
X8280633Y-12658917D01*
X8365910Y-12791441D01*
X8578110Y-12936431D01*
X8830000Y-12987440D01*
X9630000Y-12987440D01*
X9865317Y-12943162D01*
X10081441Y-12804090D01*
X10226431Y-12591890D01*
X10277440Y-12340000D01*
X10277440Y-11440000D01*
X10233162Y-11204683D01*
X10094090Y-10988559D01*
X9990000Y-10917437D01*
X9990000Y-9057315D01*
X10040000Y-9067440D01*
X10540000Y-9067440D01*
X10605110Y-9055189D01*
X10557560Y-9290000D01*
X10557560Y-9290000D01*
G37*
X10557560Y-9290000D02*
X10557560Y-10350000D01*
X10601838Y-10585317D01*
X10740910Y-10801441D01*
X10916232Y-10921233D01*
X10753559Y-11025910D01*
X10608569Y-11238110D01*
X10557560Y-11490000D01*
X10557560Y-12362638D01*
X10022599Y-12897599D01*
X9857852Y-13144161D01*
X9800000Y-13435000D01*
X9800000Y-13677046D01*
X9509946Y-13870853D01*
X9290000Y-14200026D01*
X9070054Y-13870853D01*
X8588285Y-13548946D01*
X8020000Y-13435907D01*
X7451715Y-13548946D01*
X6969946Y-13870853D01*
X6750000Y-14200026D01*
X6530054Y-13870853D01*
X6048285Y-13548946D01*
X5970000Y-13533374D01*
X5970000Y-12835105D01*
X6111441Y-12744090D01*
X6256431Y-12531890D01*
X6278434Y-12423236D01*
X6282599Y-12427401D01*
X6301365Y-12439940D01*
X6326838Y-12575317D01*
X6465910Y-12791441D01*
X6678110Y-12936431D01*
X6930000Y-12987440D01*
X7730000Y-12987440D01*
X7965317Y-12943162D01*
X8181441Y-12804090D01*
X8280633Y-12658917D01*
X8365910Y-12791441D01*
X8578110Y-12936431D01*
X8830000Y-12987440D01*
X9630000Y-12987440D01*
X9865317Y-12943162D01*
X10081441Y-12804090D01*
X10226431Y-12591890D01*
X10277440Y-12340000D01*
X10277440Y-11440000D01*
X10233162Y-11204683D01*
X10094090Y-10988559D01*
X9990000Y-10917437D01*
X9990000Y-9057315D01*
X10040000Y-9067440D01*
X10540000Y-9067440D01*
X10605110Y-9055189D01*
X10557560Y-9290000D01*
G36*
X3299009Y-1846334D02*
X3205000Y-2318948D01*
X3205000Y-3081052D01*
X3299009Y-3553666D01*
X3566723Y-3954329D01*
X3690000Y-4036700D01*
X3690000Y-4389864D01*
X3685000Y-4415000D01*
X3742852Y-4705839D01*
X3907599Y-4952401D01*
X4081191Y-5125993D01*
X4080237Y-5128292D01*
X4079764Y-5669334D01*
X4286376Y-6169372D01*
X4668616Y-6552280D01*
X4910000Y-6652511D01*
X4910000Y-7185520D01*
X4853569Y-7268110D01*
X4843526Y-7317705D01*
X4778327Y-7160301D01*
X4599698Y-6981673D01*
X4366309Y-6885000D01*
X4273750Y-6885000D01*
X4115000Y-7043750D01*
X4115000Y-7843000D01*
X4137000Y-7843000D01*
X4137000Y-8097000D01*
X4115000Y-8097000D01*
X4115000Y-8896250D01*
X4273750Y-9055000D01*
X4366309Y-9055000D01*
X4599698Y-8958327D01*
X4778327Y-8779699D01*
X4841531Y-8627112D01*
X4846838Y-8655317D01*
X4985910Y-8871441D01*
X5198110Y-9016431D01*
X5450000Y-9067440D01*
X5950000Y-9067440D01*
X6185317Y-9023162D01*
X6401441Y-8884090D01*
X6449134Y-8814289D01*
X6485910Y-8871441D01*
X6698110Y-9016431D01*
X6950000Y-9067440D01*
X7354535Y-9067440D01*
X7341673Y-9080302D01*
X7245000Y-9313691D01*
X7245000Y-9604250D01*
X7403750Y-9763000D01*
X8153000Y-9763000D01*
X8153000Y-9743000D01*
X8407000Y-9743000D01*
X8407000Y-9763000D01*
X8427000Y-9763000D01*
X8427000Y-10017000D01*
X8407000Y-10017000D01*
X8407000Y-10816250D01*
X8470000Y-10879250D01*
X8470000Y-10917069D01*
X8378559Y-10975910D01*
X8279367Y-11121083D01*
X8194090Y-10988559D01*
X8067314Y-10901936D01*
X8153000Y-10816250D01*
X8153000Y-10017000D01*
X7403750Y-10017000D01*
X7245000Y-10175750D01*
X7245000Y-10466309D01*
X7341673Y-10699698D01*
X7434534Y-10792560D01*
X6930000Y-10792560D01*
X6818367Y-10813565D01*
X6307440Y-10302638D01*
X6307440Y-10280000D01*
X6263162Y-10044683D01*
X6124090Y-9828559D01*
X5911890Y-9683569D01*
X5660000Y-9632560D01*
X4760000Y-9632560D01*
X4524683Y-9676838D01*
X4379905Y-9770000D01*
X3848386Y-9770000D01*
X3721890Y-9683569D01*
X3470000Y-9632560D01*
X3380000Y-9632560D01*
X3380000Y-8958025D01*
X3380302Y-8958327D01*
X3613691Y-9055000D01*
X3706250Y-9055000D01*
X3865000Y-8896250D01*
X3865000Y-8097000D01*
X3843000Y-8097000D01*
X3843000Y-7843000D01*
X3865000Y-7843000D01*
X3865000Y-7043750D01*
X3706250Y-6885000D01*
X3613691Y-6885000D01*
X3380302Y-6981673D01*
X3239064Y-7122910D01*
X3204090Y-7068559D01*
X2991890Y-6923569D01*
X2740000Y-6872560D01*
X2240000Y-6872560D01*
X2004683Y-6916838D01*
X1850000Y-7016374D01*
X1850000Y-1460000D01*
X3557149Y-1460000D01*
X3299009Y-1846334D01*
X3299009Y-1846334D01*
G37*
X3299009Y-1846334D02*
X3205000Y-2318948D01*
X3205000Y-3081052D01*
X3299009Y-3553666D01*
X3566723Y-3954329D01*
X3690000Y-4036700D01*
X3690000Y-4389864D01*
X3685000Y-4415000D01*
X3742852Y-4705839D01*
X3907599Y-4952401D01*
X4081191Y-5125993D01*
X4080237Y-5128292D01*
X4079764Y-5669334D01*
X4286376Y-6169372D01*
X4668616Y-6552280D01*
X4910000Y-6652511D01*
X4910000Y-7185520D01*
X4853569Y-7268110D01*
X4843526Y-7317705D01*
X4778327Y-7160301D01*
X4599698Y-6981673D01*
X4366309Y-6885000D01*
X4273750Y-6885000D01*
X4115000Y-7043750D01*
X4115000Y-7843000D01*
X4137000Y-7843000D01*
X4137000Y-8097000D01*
X4115000Y-8097000D01*
X4115000Y-8896250D01*
X4273750Y-9055000D01*
X4366309Y-9055000D01*
X4599698Y-8958327D01*
X4778327Y-8779699D01*
X4841531Y-8627112D01*
X4846838Y-8655317D01*
X4985910Y-8871441D01*
X5198110Y-9016431D01*
X5450000Y-9067440D01*
X5950000Y-9067440D01*
X6185317Y-9023162D01*
X6401441Y-8884090D01*
X6449134Y-8814289D01*
X6485910Y-8871441D01*
X6698110Y-9016431D01*
X6950000Y-9067440D01*
X7354535Y-9067440D01*
X7341673Y-9080302D01*
X7245000Y-9313691D01*
X7245000Y-9604250D01*
X7403750Y-9763000D01*
X8153000Y-9763000D01*
X8153000Y-9743000D01*
X8407000Y-9743000D01*
X8407000Y-9763000D01*
X8427000Y-9763000D01*
X8427000Y-10017000D01*
X8407000Y-10017000D01*
X8407000Y-10816250D01*
X8470000Y-10879250D01*
X8470000Y-10917069D01*
X8378559Y-10975910D01*
X8279367Y-11121083D01*
X8194090Y-10988559D01*
X8067314Y-10901936D01*
X8153000Y-10816250D01*
X8153000Y-10017000D01*
X7403750Y-10017000D01*
X7245000Y-10175750D01*
X7245000Y-10466309D01*
X7341673Y-10699698D01*
X7434534Y-10792560D01*
X6930000Y-10792560D01*
X6818367Y-10813565D01*
X6307440Y-10302638D01*
X6307440Y-10280000D01*
X6263162Y-10044683D01*
X6124090Y-9828559D01*
X5911890Y-9683569D01*
X5660000Y-9632560D01*
X4760000Y-9632560D01*
X4524683Y-9676838D01*
X4379905Y-9770000D01*
X3848386Y-9770000D01*
X3721890Y-9683569D01*
X3470000Y-9632560D01*
X3380000Y-9632560D01*
X3380000Y-8958025D01*
X3380302Y-8958327D01*
X3613691Y-9055000D01*
X3706250Y-9055000D01*
X3865000Y-8896250D01*
X3865000Y-8097000D01*
X3843000Y-8097000D01*
X3843000Y-7843000D01*
X3865000Y-7843000D01*
X3865000Y-7043750D01*
X3706250Y-6885000D01*
X3613691Y-6885000D01*
X3380302Y-6981673D01*
X3239064Y-7122910D01*
X3204090Y-7068559D01*
X2991890Y-6923569D01*
X2740000Y-6872560D01*
X2240000Y-6872560D01*
X2004683Y-6916838D01*
X1850000Y-7016374D01*
X1850000Y-1460000D01*
X3557149Y-1460000D01*
X3299009Y-1846334D01*
M02*
